<?xml version="1.0" encoding="iso-8859-1"?>
<!-- Generator: Adobe Illustrator 18.1.1, SVG Export Plug-In . SVG Version: 6.00 Build 0)  -->
<svg version="1.1" id="Capa_1" xmlns="http://www.w3.org/2000/svg" xmlns:xlink="http://www.w3.org/1999/xlink" x="0px" y="0px"
	 viewBox="0 0 498.324 498.324" style="enable-background:new 0 0 498.324 498.324;" xml:space="preserve">
<g>
	<path style="fill:#010002;" d="M281.473,291.012h-29.994c1.935-1.203,4.641-2.796,8.096-4.763l8.169-4.633
		c7.186-4.072,12.274-7.73,15.55-11.169c5.162-5.381,7.771-11.64,7.771-18.639c0-9.063-3.707-16.444-11.022-21.923
		c-7.023-5.284-16.485-7.958-28.125-7.958c-14.973,0-25.629,4.674-31.685,13.892c-2.162,3.3-3.69,7.291-4.544,11.868
		c-0.463,2.512,0.195,5.064,1.805,7.007c1.731,2.089,4.341,3.276,7.153,3.276h6.804c5.007,0,9.421-3.39,10.266-7.885
		c0.317-1.683,0.756-2.983,1.292-3.877c1.626-2.682,4.853-3.991,9.868-3.991c3.69,0,6.373,0.853,8.185,2.593
		c1.772,1.699,2.642,3.804,2.642,6.413c0,3.349-1.707,6.446-5.21,9.429c-2.601,2.195-8.568,5.974-17.737,11.234
		c-11.469,6.56-18.614,12.746-21.736,18.712c-2.057,3.382-3.536,7.039-4.389,10.876c-0.553,2.479,0.041,5.032,1.626,6.999
		c1.699,2.122,4.414,3.39,7.243,3.39h57.957c5.373,0,9.738-4.373,9.738-9.738v-1.39
		C291.211,295.377,286.838,291.012,281.473,291.012z"/>
	<path style="fill:#010002;" d="M364.474,274.739c-1.439,0-2.609-1.455-2.609-3.243v-38.911c0-5.373-4.373-9.738-9.738-9.738h-9.876
		c-4.625,0-10.21,2.788-12.998,6.47l-30.255,40.058c-2.601,3.455-4.568,9.315-4.568,13.632v1.284c0,5.373,4.373,9.738,9.738,9.738
		h28.019c1.788,0,3.243,1.455,3.243,3.243v4.885c0,5.373,4.373,9.738,9.738,9.738h6.942c5.373,0,9.738-4.373,9.738-9.738v-4.885
		c0-1.788,1.171-3.243,2.609-3.243c5.023,0,9.104-4.324,9.104-9.641C373.586,279.055,369.497,274.739,364.474,274.739z
		 M335.438,271.488c0,1.788-1.455,3.243-3.243,3.243H319.32c-0.049,0-0.098,0-0.138,0c0.024-0.041,0.049-0.073,0.081-0.114
		l16.184-22.386v19.257H335.438z"/>
	<path style="fill:#010002;" d="M294.015,105.291c-89.114,0-161.612,72.499-161.612,161.612
		c0,89.105,72.499,161.604,161.612,161.604s161.612-72.499,161.612-161.604C455.628,177.789,383.129,105.291,294.015,105.291z
		 M422.504,278.868c-1.601,17.346-6.649,33.701-14.453,48.389l-14.404-8.316l-4.788,8.291l14.314,8.275
		c-10.25,16.249-23.979,30.035-40.188,40.334l-8.437-14.485l-8.267,4.804l8.494,14.583c-14.794,7.925-31.295,13.03-48.796,14.648
		V368.38h-23.922v27.011c-17.509-1.618-34.01-6.722-48.796-14.648l8.494-14.583l-8.275-4.812l-8.437,14.485
		c-16.208-10.299-29.938-24.085-40.188-40.334l14.323-8.275l-4.788-8.291l-14.404,8.324c-7.803-14.688-12.851-31.043-14.453-48.389
		h26.613v-23.922h-26.613c1.601-17.346,6.649-33.701,14.453-48.389l14.396,8.316l4.788-8.291l-14.323-8.275
		c10.25-16.249,23.979-30.035,40.188-40.334l8.437,14.485l8.275-4.812l-8.494-14.583c14.794-7.925,31.295-13.03,48.796-14.648
		v27.019h23.922v-27.019c17.509,1.618,34.01,6.722,48.796,14.648l-8.494,14.583l8.275,4.812l8.437-14.485
		c16.208,10.299,29.938,24.085,40.188,40.334l-14.314,8.275l4.788,8.291l14.396-8.316c7.803,14.688,12.851,31.043,14.453,48.389
		h-26.613v23.922H422.504z"/>
	<path style="fill:#010002;" d="M271.816,450.625c-104.542-8.519-166.221-103.778-166.221-192.485
		c0-81.977,59.2-166.335,153.15-184.177v16.16c0,9.21,6.942,11.396,15.509,4.885l65.468-33.839c8.568-6.511,8.568-17.07,0-23.581
		L274.255,3.749c-8.568-6.511-15.509-4.324-15.509,4.885v16.355C131.192,42.814,42.696,150.803,42.696,258.14
		c0,112.004,87.415,229.055,222.43,240.053c1.138,0.081,2.26,0.13,3.39,0.13c15.859,0,29.507-9.104,31.238-21.37
		C301.591,463.818,289.089,452.031,271.816,450.625z"/>
</g>
<g>
</g>
<g>
</g>
<g>
</g>
<g>
</g>
<g>
</g>
<g>
</g>
<g>
</g>
<g>
</g>
<g>
</g>
<g>
</g>
<g>
</g>
<g>
</g>
<g>
</g>
<g>
</g>
<g>
</g>
</svg>
