<?xml version="1.0" encoding="iso-8859-1"?>
<!-- Generator: Adobe Illustrator 18.1.1, SVG Export Plug-In . SVG Version: 6.00 Build 0)  -->
<svg version="1.1" id="Capa_1" xmlns="http://www.w3.org/2000/svg" xmlns:xlink="http://www.w3.org/1999/xlink" x="0px" y="0px"
	 viewBox="0 0 492.226 492.226" style="enable-background:new 0 0 492.226 492.226;" xml:space="preserve">
<g>
	<g>
		<path style="fill:#010002;" d="M57.412,297.295c-20.492,0-37.139,16.2-38.147,36.457c-0.033,0.634-0.187,1.244-0.187,1.886
			c0,21.142,17.2,38.342,38.342,38.342s38.342-17.2,38.342-38.342c0-0.642-0.163-1.252-0.187-1.886
			C94.552,313.503,77.904,297.295,57.412,297.295z M57.412,353.658c-9.649,0-17.55-7.625-17.997-17.168
			c0.065-0.569,0.114-1.146,0.146-1.731c0.48-9.608,8.316-17.143,17.85-17.143s17.379,7.527,17.85,17.143
			c0.033,0.577,0.081,1.138,0.146,1.723C74.962,346.025,67.061,353.658,57.412,353.658z"/>
		<path style="fill:#010002;" d="M311.52,297.295c-20.492,0-37.139,16.2-38.147,36.457c-0.033,0.634-0.187,1.244-0.187,1.886
			c0,21.142,17.2,38.342,38.342,38.342c21.142,0,38.342-17.2,38.342-38.342c0-0.642-0.163-1.252-0.187-1.886
			C348.659,313.503,332.012,297.295,311.52,297.295z M311.52,353.658c-9.649,0-17.55-7.625-17.997-17.168
			c0.065-0.569,0.114-1.146,0.146-1.731c0.48-9.608,8.316-17.143,17.85-17.143c9.535,0,17.371,7.527,17.85,17.143
			c0.033,0.569,0.081,1.138,0.146,1.723C329.077,346.025,321.168,353.658,311.52,353.658z"/>
		<path style="fill:#010002;" d="M475.969,258.05h-90.252v-15.241h61.802c8.974,0,16.257-7.283,16.257-16.257
			c0-8.974-7.283-16.257-16.257-16.257h-61.802v-11.177h35.384c8.974,0,16.257-7.283,16.257-16.257
			c0-8.974-7.283-16.257-16.257-16.257h-36.432c-5.975-35.286-39.115-48.357-79.213-48.357h-94.478
			c-44.325,0-80.27,15.867-80.27,60.2v99.258h-13.656V158.377c0-7.389-5.991-13.38-13.38-13.38h-36.79
			c-7.389,0-17.98,3.837-23.654,8.568l-32.953,27.466C4.601,185.762,0,195.582,0,202.971v117.612
			c0,6.267,4.324,11.486,10.136,12.941c1.114-25.142,21.858-45.268,47.276-45.268c17.298,0,32.417,9.348,40.692,23.231
			c3.934,6.6,6.292,14.217,6.6,22.37c0,0.033,0,0.065,0.008,0.106h159.58c0.894-25.345,21.736-45.707,47.292-45.707
			s46.406,20.362,47.292,45.707h26.841v-43.398h90.252c8.974,0,16.257-7.283,16.257-16.257S484.943,258.05,475.969,258.05z
			 M85.366,220.325c0,7.389-5.991,13.38-13.38,13.38H38.375c-7.389,0-13.38-5.991-13.38-13.38v-6.413
			c0-7.389,4.601-17.208,10.275-21.939l14.054-11.713c5.674-4.731,16.046-8.568,23.158-8.568s12.876,5.991,12.876,13.38v35.254
			H85.366z"/>
	</g>
</g>
<g>
</g>
<g>
</g>
<g>
</g>
<g>
</g>
<g>
</g>
<g>
</g>
<g>
</g>
<g>
</g>
<g>
</g>
<g>
</g>
<g>
</g>
<g>
</g>
<g>
</g>
<g>
</g>
<g>
</g>
</svg>
