<?xml version="1.0" encoding="iso-8859-1"?>
<!-- Generator: Adobe Illustrator 19.0.0, SVG Export Plug-In . SVG Version: 6.00 Build 0)  -->
<svg version="1.1" id="Layer_1" xmlns="http://www.w3.org/2000/svg" xmlns:xlink="http://www.w3.org/1999/xlink" x="0px" y="0px"
	 viewBox="0 0 512 512" style="enable-background:new 0 0 512 512;" xml:space="preserve">
<path d="M256,0C177.335,82.664,46.664,64,46.664,64v224C46.664,420,256,512,256,512s209.336-92,209.336-224V64
	C465.335,64,334.664,82.664,256,0z"/>
<path style="fill:#FFFFFF;" d="M239.776,381.128v-29.064c-18.089-0.518-35.842-5.011-52-13.16l9.2-35.816
	c15.575,8.594,33.029,13.216,50.816,13.456c17.448,0,29.384-6.728,29.384-18.968c0-11.64-9.792-18.992-32.448-26.64
	c-32.752-11.016-55.104-26.32-55.104-56c0-26.944,18.992-48.056,51.744-54.48v-29.088h29.984v26.944
	c15.339,0.234,30.46,3.673,44.392,10.096L306.871,203c-13.724-6.744-28.796-10.3-44.088-10.4c-19.888,0-26.32,8.576-26.32,17.144
	c0,10.096,10.72,16.528,36.736,26.32c36.416,12.864,51.12,29.68,51.12,57.248c0,27.24-19.288,50.496-54.48,56.624v31.2
	L239.776,381.128z"/>
<g>
	<polygon style="fill:#E21B1B;" points="380.016,135.032 324.263,135.032 324.263,127.032 376.704,127.032 397.04,106.696 
		465.335,106.696 465.335,114.696 400.352,114.696 	"/>
	<path style="fill:#E21B1B;" d="M262.273,440.352h-55.76l-20.336-20.336h-70.005c0,0-3.103-2.969-4.125-3.963
		c-1.034-1.006-4.097-4.041-4.097-4.041l81.547,0.004l20.336,20.336h52.44V440.352z"/>
</g>
<g>
</g>
<g>
</g>
<g>
</g>
<g>
</g>
<g>
</g>
<g>
</g>
<g>
</g>
<g>
</g>
<g>
</g>
<g>
</g>
<g>
</g>
<g>
</g>
<g>
</g>
<g>
</g>
<g>
</g>
</svg>
